<?xml version="1.0" encoding="UTF-8" standalone="no"?>
<!-- Created with Inkscape (http://www.inkscape.org/) -->

<svg
   width="210mm"
   height="297mm"
   viewBox="0 0 210 297"
   version="1.1"
   id="svg5"
   inkscape:version="1.1.2 (b8e25be833, 2022-02-05)"
   sodipodi:docname="圖畫.svg"
   xmlns:inkscape="http://www.inkscape.org/namespaces/inkscape"
   xmlns:sodipodi="http://sodipodi.sourceforge.net/DTD/sodipodi-0.dtd"
   xmlns="http://www.w3.org/2000/svg"
   xmlns:svg="http://www.w3.org/2000/svg">
  <sodipodi:namedview
     id="namedview7"
     pagecolor="#ffffff"
     bordercolor="#666666"
     borderopacity="1.0"
     inkscape:pageshadow="2"
     inkscape:pageopacity="0.0"
     inkscape:pagecheckerboard="0"
     inkscape:document-units="mm"
     showgrid="false"
     inkscape:zoom="0.72337262"
     inkscape:cx="397.44385"
     inkscape:cy="561.95105"
     inkscape:window-width="1920"
     inkscape:window-height="1001"
     inkscape:window-x="-9"
     inkscape:window-y="-9"
     inkscape:window-maximized="1"
     inkscape:current-layer="layer1" />
  <defs
     id="defs2" />
  <g
     inkscape:label="圖層 1"
     inkscape:groupmode="layer"
     id="layer1">
    <path
       sodipodi:type="star"
       style="fill:#ffff00;fill-rule:evenodd"
       id="path31"
       inkscape:flatsided="false"
       sodipodi:sides="5"
       sodipodi:cx="435.46021"
       sodipodi:cy="317.95508"
       sodipodi:r1="93.97361"
       sodipodi:r2="46.986805"
       sodipodi:arg1="0.45706876"
       sodipodi:arg2="1.0853873"
       inkscape:rounded="0"
       inkscape:randomized="0"
       d="m 519.78742,359.42748 -62.40457,0.0867 -35.3067,51.45654 -19.36652,-59.32349 -59.84844,-17.67772 50.43541,-36.75061 -1.68168,-62.38197 50.53731,36.61036 58.80912,-20.87646 -19.20164,59.37706 z"
       transform="matrix(-0.26458333,0,0,0.26458333,245.06157,27.432266)"
       inkscape:transform-center-x="-1.0942945"
       inkscape:transform-center-y="1.3093496" />
    <path
       sodipodi:type="star"
       style="fill:#ffff00;fill-rule:evenodd"
       id="path31-4"
       inkscape:flatsided="false"
       sodipodi:sides="5"
       sodipodi:cx="435.46021"
       sodipodi:cy="317.95508"
       sodipodi:r1="93.97361"
       sodipodi:r2="46.986805"
       sodipodi:arg1="0.45706876"
       sodipodi:arg2="1.0853873"
       inkscape:rounded="0"
       inkscape:randomized="0"
       transform="matrix(0.26458333,0,0,0.26458333,-50.844127,29.049026)"
       inkscape:transform-center-x="1.0942918"
       inkscape:transform-center-y="1.3093496"
       d="m 519.78742,359.42748 -62.40457,0.0867 -35.3067,51.45654 -19.36652,-59.32349 -59.84844,-17.67772 50.43541,-36.75061 -1.68168,-62.38197 50.53731,36.61036 58.80912,-20.87646 -19.20164,59.37706 z" />
    <path
       sodipodi:type="spiral"
       style="fill:none;fill-rule:evenodd;stroke:#000000"
       id="path160"
       sodipodi:cx="240.53993"
       sodipodi:cy="424.40091"
       sodipodi:expansion="1"
       sodipodi:revolution="3"
       sodipodi:radius="25.714376"
       sodipodi:argument="-18.216806"
       sodipodi:t0="0"
       d="m 240.53993,424.40091 c 1.03968,0.76243 -0.5148,1.77762 -1.26721,1.72802 -2.03899,-0.13444 -2.74447,-2.6111 -2.18882,-4.26245 0.99392,-2.95387 4.61872,-3.83966 7.25767,-2.64962 3.87277,1.74643 4.96206,6.65168 3.11043,10.2529 -2.46794,4.79987 -8.69339,6.09574 -13.24814,3.57123 -5.73168,-3.17684 -7.23517,-10.73919 -4.03202,-16.24336 3.87944,-6.66629 12.7873,-8.37795 19.23859,-4.49283 7.60262,4.57848 9.52281,14.83684 4.95363,22.23382 -5.2753,8.5401 -16.88735,10.66906 -25.22905,5.41443 -9.47837,-5.97064 -11.81629,-18.93852 -5.87524,-28.22428 6.66497,-10.41721 20.99018,-12.96423 31.21951,-6.33604 11.35649,7.35855 14.1127,23.04222 6.79684,34.21474"
       transform="scale(0.26458333)" />
    <path
       sodipodi:type="spiral"
       style="fill:none;fill-rule:evenodd;stroke:#000000"
       id="path162"
       sodipodi:cx="494.90399"
       sodipodi:cy="423.01849"
       sodipodi:expansion="1"
       sodipodi:revolution="3"
       sodipodi:radius="43.151684"
       sodipodi:argument="-18.003386"
       sodipodi:t0="0"
       d="m 494.90399,423.01849 c 1.43413,1.61996 -1.47612,2.73241 -2.69247,2.38361 -3.29624,-0.9452 -3.57297,-5.25778 -2.07475,-7.76856 2.67997,-4.4912 8.93964,-4.65556 12.84465,-1.76588 5.73077,4.24073 5.77377,12.67271 1.45701,17.92074 -5.75355,6.99479 -16.42413,6.90735 -22.99682,1.14815 -8.27106,-7.24738 -8.04894,-20.18435 -0.83928,-28.07291 8.73186,-9.55411 23.94951,-9.19518 33.14899,-0.53042 10.84128,10.21112 10.34433,27.71777 0.22156,38.22508 -11.68714,12.13111 -31.48809,11.49541 -43.30117,-0.0873 -13.42277,-13.16103 -12.64786,-35.25986 0.39618,-48.37726 14.63344,-14.71573 39.03268,-13.80129 53.45334,0.70505 16.00966,16.10479 14.95547,42.80631 -1.01391,58.52943"
       transform="scale(0.26458333)" />
    <path
       style="fill:#000000;fill-opacity:1;fill-rule:nonzero;stroke:none;stroke-width:0.264583"
       id="path256"
       d="m 65.953806,152.45017 c 3.701071,1.65042 7.396014,3.31741 11.129539,4.89421 4.70412,1.91043 9.796023,2.36308 14.803226,2.82454 5.375468,0.38494 10.679439,-0.84495 15.912619,-1.91 5.40059,-1.24247 10.87421,-2.02937 16.39264,-2.48056 2.67134,-0.16043 5.36198,-0.38056 8.03229,-0.0657 1.24022,0.14624 1.53472,0.26447 2.68736,0.57036 0.30969,0.14507 0.63869,0.25455 0.92905,0.43522 1.71958,1.06994 1.72925,3.30602 1.73461,5.08503 -0.11591,0.4958 -0.18473,1.00504 -0.34775,1.48742 -0.80815,2.39129 -2.44823,4.56425 -4.47015,6.06412 -0.59519,0.44151 -1.25722,0.78494 -1.88583,1.17741 0.32974,-0.27475 1.41842,-0.82886 0.98924,-0.82425 -0.93289,0.01 -1.76528,0.61096 -2.66909,0.84229 -1.02089,0.2613 -2.05776,0.46056 -3.09725,0.63362 -3.50374,0.58331 -7.0109,0.71435 -10.55291,0.80362 -6.38671,0.004 -12.80383,-0.20264 -19.145851,-1.01312 -1.543626,-0.19727 -3.078601,-0.45715 -4.617905,-0.68573 -6.893848,-1.19427 -13.786672,-2.61785 -20.332456,-5.14641 -0.904534,-0.3494 -1.784035,-0.76045 -2.676054,-1.14068 -2.611816,-1.29064 -5.373209,-2.87438 -6.824464,-5.52754 -0.178335,-0.32603 -0.298929,-0.68047 -0.448392,-1.0207 -0.231907,-0.91709 -0.925248,-2.61047 -0.290891,-3.4974 0.2076,-0.29025 1.139042,-0.84637 0.817912,-0.69074 -0.729359,0.35347 -1.373018,0.86164 -2.059527,1.29246 2.185214,-0.8235 4.525126,-1.2233 6.858441,-0.97781 0.892974,0.094 1.384766,0.25537 2.223821,0.4785 0.245514,0.0964 0.491027,0.19269 0.736541,0.28904 0,0 3.25392,-2.18101 3.25392,-2.18101 v 0 c -0.260382,-0.10469 -0.520761,-0.20938 -0.781142,-0.31408 -0.858372,-0.23034 -1.40257,-0.40545 -2.312128,-0.51305 -2.357572,-0.27891 -4.722826,0.0886 -6.973284,0.80079 -0.202525,0.11666 -4.451078,1.881 -5.290976,3.50466 -0.542224,1.04822 0.140208,2.69421 0.434173,3.7162 0.16324,0.3568 0.296741,0.72876 0.489723,1.07039 0.502192,0.88901 0.978606,1.41759 1.719305,2.13294 1.564264,1.51074 3.378313,2.61396 5.366874,3.49281 0.909169,0.37819 1.805826,0.78799 2.72751,1.13457 6.609271,2.48524 13.546082,3.87807 20.475162,5.12713 1.527254,0.24402 3.049011,0.52536 4.581761,0.73205 6.329904,0.85361 12.748147,1.06048 19.126677,1.08446 3.54035,-0.0805 7.05106,-0.19362 10.55908,-0.73068 1.32667,-0.2031 4.45567,-0.77483 5.76477,-1.36357 1.87722,-0.84425 3.64231,-1.91846 5.46347,-2.8777 0.62691,-0.41443 1.28853,-0.78061 1.88073,-1.24329 2.01892,-1.57735 3.65526,-3.84417 4.41868,-6.29876 0.15899,-0.51118 0.21648,-1.04855 0.32472,-1.57283 -0.0287,-1.93151 -0.1019,-4.29203 -1.92309,-5.47511 -0.30722,-0.19958 -0.65826,-0.32181 -0.98739,-0.48272 -1.17303,-0.31579 -1.50795,-0.44641 -2.76668,-0.60143 -2.70309,-0.33289 -5.42648,-0.10785 -8.13101,0.0635 -5.53584,0.45028 -11.03081,1.22 -16.44867,2.46677 -5.20847,1.06334 -10.48357,2.28911 -15.834077,1.98589 -4.969844,-0.42458 -10.006534,-0.89674 -14.680028,-2.76914 -3.719939,-1.53789 -7.415623,-3.14373 -11.012456,-4.95312 0,0 -3.274393,2.16713 -3.274393,2.16713 z" />
    <path
       style="fill:#000000;fill-opacity:1;fill-rule:nonzero;stroke:none;stroke-width:0.264583"
       id="path258"
       d="m 94.593157,134.56992 c 1.259785,1.11574 2.547321,2.21877 3.594299,3.54559 0.694322,0.8799 0.777745,1.09894 1.322885,2.04202 0.261702,0.87575 0.471911,1.84062 -0.215186,2.6026 -0.247533,0.27451 -1.206299,0.84742 -0.878369,0.67686 4.129474,-2.1478 1.835334,-1.21716 0.587375,-0.77781 -1.391616,0.40409 -2.825491,0.61803 -4.250597,0.86142 0,0 -3.091445,2.32827 -3.091445,2.32827 v 0 c 1.441106,-0.25406 2.8911,-0.46903 4.309655,-0.83589 2.870676,-0.87726 2.07523,-0.51239 6.042576,-3.04017 0.6259,-0.39879 1.04738,-1.004 1.17195,-1.73082 0.135,-0.78767 -0.10369,-1.28108 -0.31633,-2.02662 -0.57886,-0.97898 -0.65186,-1.17355 -1.37522,-2.09223 -1.05243,-1.33662 -2.342078,-2.4438 -3.55278,-3.62967 0,0 -3.348813,2.07645 -3.348813,2.07645 z" />
    <path
       style="fill:#000000;fill-opacity:1;fill-rule:nonzero;stroke:none;stroke-width:0.264583"
       id="path260"
       d="m 103.11381,77.427036 c 1.03739,-1.137833 0.88386,-1.048602 2.36405,-2.190017 0.64391,-0.496533 1.33683,-0.927216 1.98104,-1.423361 0.20345,-0.156696 -0.89525,0.497735 -0.65647,0.403225 7.03174,-2.783101 -1.09342,0.0062 6.50591,-2.483921 1.41453,-0.299749 2.81435,-0.680059 4.24358,-0.899245 3.73626,-0.573 7.31894,-0.703289 11.1005,-0.715261 6.27026,-0.01984 12.52051,0.420722 18.76934,0.873363 3.75459,0.435383 7.62141,0.549381 11.28531,1.587905 0.53455,0.151516 1.06191,0.347197 1.55054,0.611666 0.24735,0.133877 0.57717,0.289121 0.6256,0.566172 0.0345,0.197175 -0.30595,0.258191 -0.45892,0.387286 0.52621,-0.448657 2.22616,-1.103323 1.57862,-1.34597 -1.06472,-0.398968 -2.21723,0.515509 -3.34148,0.685395 -1.697,0.256437 -3.40666,0.423617 -5.11461,0.592421 -5.76932,0.570211 -11.56193,0.944367 -17.33733,1.452213 -6.07022,0.653275 -12.18695,1.277917 -18.13772,2.698597 -0.99214,0.792834 -2.23553,1.346991 -2.97643,2.378501 -0.24706,0.343969 0.84707,0.0044 1.2705,-0.0034 0.94326,-0.01733 1.88593,-0.07506 2.82935,-0.0719 5.35898,0.01791 10.70296,0.391142 16.04727,0.742262 5.2973,0.354089 10.57231,0.964152 15.81951,1.764848 2.75112,0.419803 5.45421,0.900289 8.14427,1.605708 0.25467,0.128561 0.58948,0.160031 0.76402,0.385686 0.0967,0.124992 -0.56998,0.114816 -0.47394,-0.01066 0.49698,-0.649261 2.22141,-1.005133 1.77666,-1.691227 -0.49841,-0.768863 -1.82638,0.153752 -2.74133,0.203094 -1.27691,0.06886 -6.12226,0.216207 -7.27523,0.253069 -7.4455,0.259863 -14.86323,0.969579 -22.28281,1.608518 -0.84463,0.383903 -1.80391,0.02006 -2.67351,0.229421 -0.0616,0.01482 0.20194,0.06921 0.15427,0.110881 -0.7885,0.689192 -2.2387,0.906378 -2.48313,1.924688 -0.1651,0.687811 1.39495,-0.240247 2.09784,-0.31958 1.10208,-0.124386 2.20964,-0.194188 3.31445,-0.29128 7.62913,-0.315687 15.29523,0.04575 22.86505,1.050886 1.28656,0.170831 2.56738,0.382415 3.85107,0.573624 5.6447,1.058127 11.36343,2.290371 16.49953,4.946534 1.92568,-0.747639 0.029,1.275728 0.35508,1.081667 0.68549,-0.407914 2.24054,-0.721866 1.90655,-1.44625 -0.33015,-0.71605 -1.50884,0.462039 -2.27565,0.645718 -1.76023,0.421651 -5.21399,1.034704 -6.88504,1.344536 -5.34155,0.996791 -10.72752,1.787798 -15.98794,3.169613 -1.9724,0.56999 -3.53782,1.23798 -5.29988,2.625619 -0.16827,0.13251 0.16497,0.40109 0.29687,0.56983 0.16985,0.21729 0.39811,0.38177 0.59661,0.57323 0.30518,0.29437 0.60962,0.5895 0.91442,0.88424 2.56284,2.7892 4.77836,5.92912 6.63523,9.23118 0.4781,0.8502 0.90369,1.72888 1.35554,2.59332 1.94912,4.22998 3.40059,8.76378 3.78129,13.42939 0.0745,0.91265 0.0694,1.83006 0.10403,2.74509 -0.0508,0.9934 -0.0639,1.98945 -0.15239,2.9802 -0.15839,1.77352 -0.71597,5.59387 -0.98811,7.28584 -0.5744,3.57122 -1.24429,7.12882 -1.93607,10.67875 -1.22545,5.88703 -2.16694,11.83046 -3.52331,17.68913 -0.88715,3.46284 -1.80208,6.98287 -3.34708,10.22559 -1.1416,2.39604 -1.69029,3.09042 -3.12721,5.32094 -2.17458,2.89586 -4.55107,5.75573 -7.4689,7.94417 -0.56256,0.42193 -1.35035,0.58995 -1.76204,1.16005 -0.36952,0.51168 1.08369,-0.64736 1.62554,-0.97103 -3.79799,2.09599 -8.11495,2.04945 -12.33006,2.14133 -7.08362,-0.0684 -14.14941,-0.6393 -21.20934,-1.17495 -8.134865,-0.64976 -16.16171,-2.18737 -24.140411,-3.84827 -6.294294,-1.41946 -12.643233,-2.58003 -18.999199,-3.68439 -2.820075,-0.46603 -5.63281,-0.94871 -8.383863,-1.73227 -1.842524,-0.37648 -3.083684,-1.38976 -4.382413,-2.69293 -0.240191,-0.3215 -0.503838,-0.62674 -0.720574,-0.9645 -0.605404,-0.94346 -1.11829,-2.10764 -1.53235,-3.12435 -0.990791,-2.43288 -1.729288,-4.92554 -2.428777,-7.45335 -1.137375,-4.03212 -1.718744,-8.16687 -1.983005,-12.33774 0.02103,-0.62131 0.01437,-1.24418 0.0631,-1.86393 0.194382,-2.47287 0.683768,-4.92654 1.081783,-7.37117 0.578642,-3.55407 0.363707,-2.16115 0.865804,-5.8057 0.678972,-5.48014 1.038675,-10.99082 1.056421,-16.51141 -0.02199,-3.70854 -0.449279,-7.3955 -0.736547,-11.08852 -0.312013,-2.96828 -0.03166,-5.93353 0.299249,-8.88504 0.219832,-3.03773 1.06427,-5.93347 2.455315,-8.639543 0.314822,-0.612444 0.678595,-1.198462 1.017894,-1.797693 1.84272,-2.941494 4.046487,-5.720424 6.670315,-8.010435 0.512345,-0.447164 1.060048,-0.852122 1.590074,-1.278183 1.163426,-0.845865 1.789039,-1.338117 2.992829,-2.077471 0.413256,-0.253818 1.660645,-0.998628 1.266648,-0.715839 -0.675232,0.484648 -1.524574,0.736717 -2.113245,1.323478 -0.309206,0.308202 0.812683,-0.322797 1.231826,-0.444918 0.466097,-0.135803 0.946097,-0.21831 1.419145,-0.327464 3.044785,-0.571508 6.131065,-0.516882 9.200608,-0.231847 1.716968,-0.0056 3.454722,0.239816 4.018621,-2.750619 0.152945,-0.811093 -1.427089,-0.83435 -2.174814,-1.183886 -1.225516,-0.572878 -2.486181,-1.06767 -3.738139,-1.580194 -4.864124,-1.991263 -4.469043,-1.783583 -9.574083,-3.613555 -6.610392,-2.195722 -13.428096,-3.730051 -20.342839,-4.565269 -2.593975,-0.31332 -3.758334,-0.348401 -6.231892,-0.491916 -0.478637,1.325377 -3.457768,-1.543918 -0.705538,-1.261068 0.305027,0.03135 -0.895432,0.754497 -0.59313,0.703144 1.361969,-0.231365 2.60922,-0.917305 3.944281,-1.272419 1.687791,-0.448939 3.409696,-0.758102 5.114544,-1.137152 6.164133,-1.133751 12.400508,-1.79501 18.662571,-2.02701 3.960135,-0.146717 7.475828,-0.160938 11.404428,0.265975 1.512697,0.16438 3.003973,0.487071 4.505962,0.730607 3.801515,1.104111 3.334999,0.826185 6.68709,2.287373 0.730837,0.318574 1.430046,0.706858 2.161905,1.02308 0.439264,0.189799 0.894236,0.645256 1.348052,0.493501 4.678693,-1.564523 4.281077,-1.279877 2.884871,-3.404907 -3.042877,-3.438723 -6.583923,-6.42656 -10.567424,-8.725799 -1.029319,-0.594117 -2.109141,-1.096087 -3.163712,-1.644132 -1.054958,-0.445807 -2.098612,-0.919361 -3.16487,-1.337423 -1.985181,-0.77836 -3.290988,-1.169914 -5.284454,-1.779474 -0.586668,-0.179393 -1.187603,-0.315169 -1.763516,-0.526558 -0.283004,-0.103878 -0.655714,-0.152688 -0.803262,-0.415578 -0.08447,-0.150517 0.336299,-0.07789 0.504449,-0.116832 -0.737542,0.535069 -2.022962,0.713978 -2.21262,1.605211 -0.136864,0.64313 1.289754,-0.2661 1.943208,-0.339215 0.861153,-0.09635 1.727878,-0.146169 2.594118,-0.16846 2.094852,-0.05391 4.707409,0.0373 6.781901,0.223036 1.114221,0.09976 2.220843,0.271346 3.331265,0.407019 3.379618,0.530598 6.861585,1.339032 9.760648,3.259032 1.547538,1.024906 2.182136,1.793353 3.495895,3.104665 3.540085,3.887447 6.113039,8.463434 8.287491,13.215747 0.652592,1.700708 1.380601,3.384778 2.509771,4.829707 0.464151,0.593942 0.924415,1.061609 1.437325,1.608825 0.22094,0.222319 0.44188,0.444641 0.66282,0.666959 0,0 3.32901,-2.041577 3.32901,-2.041577 v 0 c -0.22164,-0.217255 -0.44327,-0.43451 -0.66491,-0.651767 -0.73914,-0.771869 -1.47516,-1.542471 -2.06553,-2.439453 -0.78875,-1.198388 -1.3468,-2.526866 -1.91305,-3.838305 -2.284051,-4.743551 -4.865773,-9.350722 -8.380992,-13.310769 -1.263243,-1.282944 -2.034993,-2.199498 -3.534553,-3.208346 -2.933716,-1.973694 -6.511367,-2.76035 -9.937882,-3.3088 -1.118574,-0.138792 -2.233629,-0.309718 -3.355721,-0.416374 -1.940261,-0.184426 -4.758151,-0.320596 -6.730664,-0.31264 -0.389321,0.0016 -3.84065,0.08669 -4.483397,0.344906 -1.56184,0.627454 -2.987561,1.551342 -4.481343,2.327015 -0.04515,0.236429 -0.27237,0.511318 -0.135456,0.70929 0.191447,0.276823 0.597956,0.315907 0.917525,0.421539 0.594945,0.196655 1.213361,0.313809 1.816886,0.482304 2.896682,0.808707 5.762641,1.732224 8.495773,3.00292 1.045501,0.540393 2.118072,1.031354 3.136503,1.621179 3.911394,2.265283 7.398533,5.24125 10.290807,8.707043 0.910077,1.453536 1.014767,2.221482 3.650142,-0.715756 0.325403,-0.362675 -0.950399,-0.227706 -1.405369,-0.402124 -0.762153,-0.29218 -1.483746,-0.681707 -2.237679,-0.994482 -3.536199,-1.467 -2.853888,-1.138414 -6.850229,-2.273263 -1.530525,-0.236921 -3.051,-0.551783 -4.591571,-0.710763 -4.085246,-0.421576 -7.396044,-0.377399 -11.52389,-0.22901 -6.230991,0.223996 -12.438735,0.819626 -18.58196,1.901216 -2.236063,0.462659 -6.644219,1.221105 -8.920834,2.20776 -2.030011,0.87978 -4.010951,1.893012 -5.886371,3.066788 -0.375304,0.234895 -1.534456,1.385631 -0.423537,1.798506 0.527661,0.196106 1.120034,0.114297 1.680051,0.171447 2.559558,0.08424 3.665919,0.08225 6.358358,0.362185 6.93419,0.720953 13.764964,2.228837 20.371829,4.454523 4.579673,1.670153 5.096621,1.777484 9.449321,3.668223 1.204325,0.523137 2.403833,1.059619 3.579601,1.644128 0.660458,0.328335 1.188966,1.147784 1.924431,1.092087 1.304838,-0.09881 2.487263,-0.86183 3.622786,-1.512176 0.32466,-0.185939 -0.746434,0.05238 -1.11965,0.07857 -3.086447,-0.299053 -6.181196,-0.426133 -9.25186,0.124203 -0.781267,0.153316 -1.957742,0.324054 -2.696078,0.692428 -3.041994,1.517735 -6.004134,3.203985 -8.688033,5.295075 -0.524862,0.434731 -1.067228,0.849156 -1.574585,1.304197 -2.607818,2.338922 -4.804283,5.133028 -6.626691,8.114001 -0.338503,0.610243 -0.701217,1.207672 -1.015508,1.830731 -1.386234,2.748101 -2.202728,5.679721 -2.412677,8.752111 -0.346168,2.98185 -0.654444,5.97997 -0.318553,8.98002 0.33288,3.66089 0.831273,7.31384 0.841266,10.9964 -0.04026,5.49704 -0.341907,10.99369 -1.043114,16.44896 -0.520621,3.63727 -0.300318,2.25896 -0.897805,5.81051 -0.415274,2.46845 -0.931786,4.9542 -1.133203,7.45327 -0.05096,0.63223 -0.03708,1.26802 -0.05561,1.90203 0.290914,4.18609 0.934429,8.32308 2.099066,12.36359 0.709478,2.54268 1.456971,5.0579 2.400753,7.52594 0.453419,1.18572 0.839906,2.18197 1.501984,3.24424 0.221758,0.3558 0.493575,0.67784 0.740365,1.01676 1.365178,1.40611 2.501572,2.46445 4.469193,2.87689 2.802411,0.79342 5.678141,1.21611 8.55163,1.66738 6.393738,1.03452 12.768521,2.19684 19.091827,3.60322 7.994346,1.62492 16.026964,3.18411 24.164058,3.88659 7.04801,0.57552 14.10528,1.09924 21.17767,1.24022 4.20333,-0.0395 8.52067,0.1245 12.34144,-1.91386 1.60699,-0.92733 4.7674,-2.57628 6.5911,-3.99944 2.86676,-2.23713 5.21235,-5.10095 7.35071,-8.01341 1.37632,-2.17215 2.03742,-3.06797 3.14053,-5.39959 1.53925,-3.25347 2.42845,-6.79135 3.29089,-10.26672 1.32718,-5.86238 2.32578,-11.79127 3.48875,-17.68756 0.65879,-3.54923 1.29852,-7.10435 1.88065,-10.6671 0.25924,-1.58658 0.89172,-5.68384 1.04985,-7.35653 0.0949,-1.00386 0.1059,-2.01389 0.15885,-3.02084 -0.0354,-0.92754 -0.0283,-1.85769 -0.1062,-2.78263 -0.396,-4.70259 -1.93793,-9.25622 -3.87245,-13.5273 -0.45051,-0.87401 -0.87573,-1.76153 -1.35154,-2.62203 -1.84679,-3.33985 -4.05908,-6.50135 -6.5522,-9.38747 -0.2914,-0.30527 -0.58,-0.61324 -0.8742,-0.91581 -0.17257,-0.177464 -0.31834,-0.635159 -0.53485,-0.51517 -6.05093,3.35344 -2.97921,1.53924 -1.44754,1.14039 5.29456,-1.504444 10.74475,-2.330875 16.14934,-3.333839 1.24041,-0.218038 2.48205,-0.429236 3.72124,-0.654108 0.31124,-0.05648 4.65439,-0.822296 5.3076,-1.124577 1.62008,-0.749705 3.21812,-1.588143 4.65619,-2.645815 0.21746,-0.159933 0.15401,-0.5637 0.0409,-0.808776 -0.13936,-0.301858 -0.48581,-0.454041 -0.72872,-0.681061 -5.25725,-2.581463 -11.05494,-3.781025 -16.76474,-4.909558 -1.2889,-0.192633 -2.57431,-0.410223 -3.86669,-0.577898 -7.56585,-0.981598 -15.22439,-1.25245 -22.84595,-1.149376 -1.07598,0.06797 -2.15299,0.121134 -3.22793,0.203912 -0.67833,0.05224 -1.4034,-0.06136 -2.03109,0.201072 -1.46267,0.611524 -2.81398,1.47668 -4.12252,2.371696 -0.10175,0.06959 0.0892,0.284634 0.21105,0.303668 0.93182,0.145624 1.87967,-0.73207 2.80968,-0.333547 7.43911,-0.752036 14.88888,-1.461961 22.36549,-1.698747 2.3971,-0.06233 4.79479,-0.102989 7.19151,-0.178469 0.89017,-0.02804 1.81538,0.140983 2.66953,-0.111252 1.72284,-0.508762 3.37125,-1.275279 4.94696,-2.137937 0.18147,-0.09935 0.21173,-0.454136 0.0819,-0.615241 -0.20357,-0.252658 -0.59458,-0.259995 -0.89187,-0.38999 -2.77673,-0.651243 -5.56247,-1.09011 -8.38895,-1.482484 -5.29855,-0.735553 -10.6161,-1.338157 -15.95471,-1.69708 -6.44485,-0.481701 -5.21069,-0.427318 -11.3251,-0.747303 -1.48823,-0.07788 -2.97621,-0.164589 -4.46564,-0.214489 -0.90071,-0.03018 -1.80232,-0.03062 -2.70351,-0.02572 -0.3736,0.0021 -0.78659,-0.122325 -1.11984,0.04656 -1.21458,0.615519 -2.27336,1.499378 -3.41004,2.249067 1.80778,-0.559753 3.65863,-0.922909 5.52093,-1.25662 4.29359,-0.769387 8.61946,-1.350823 12.95969,-1.783221 5.76322,-0.527859 11.53224,-0.934775 17.29887,-1.417359 0.50113,-0.04194 7.02304,-0.537319 8.24946,-1.00552 1.76001,-0.671904 3.33998,-1.743824 5.00997,-2.615737 0.0637,-0.28045 0.29557,-0.573445 0.19101,-0.841356 -0.25389,-0.65059 -2.18111,-1.170925 -2.4384,-1.237129 -3.77305,-0.970891 -7.72458,-1.034724 -11.5731,-1.443143 -6.25331,-0.422447 -12.51576,-0.863801 -18.7868,-0.8998 -3.6772,-0.02111 -7.35997,0.06674 -11.00927,0.570135 -1.41702,0.195466 -2.80753,0.549912 -4.21129,0.82487 -1.14729,0.360714 -2.31253,0.668663 -3.44188,1.082143 -3.3878,1.240345 -5.46504,2.562942 -8.76695,4.604808 -1.00364,0.620641 -2.72717,2.007537 -3.62428,2.846986 -0.3092,0.289332 -0.573017,0.623649 -0.859523,0.935471 0,0 3.626123,-1.549217 3.626123,-1.549217 z" />
  </g>
</svg>
